<?xml version="1.0" encoding="UTF-8" standalone="no"?>
<!DOCTYPE svg PUBLIC "-//W3C//DTD SVG 1.1//EN" "http://www.w3.org/Graphics/SVG/1.1/DTD/svg11.dtd">
<svg width="100%" height="100%" viewBox="0 0 627 627" version="1.1" xmlns="http://www.w3.org/2000/svg" xmlns:xlink="http://www.w3.org/1999/xlink" xml:space="preserve" xmlns:serif="http://www.serif.com/" style="fill-rule:evenodd;clip-rule:evenodd;stroke-linejoin:round;stroke-miterlimit:2;">
    <g transform="matrix(3.04307,0,0,3.04307,-927.585,-9697.3)">
        <g>
            <g transform="matrix(2.78313,0,0,2.78313,-1133.93,2529.59)">
                <g transform="matrix(50,0,0,50,549.282,304.282)">
                </g>
                <text x="519.582px" y="304.282px" style="font-family:'ITCAvantGardePro-Md', 'ITC Avant Garde Gothic Pro', sans-serif;font-weight:500;font-size:50px;fill:rgb(221,183,103);">R</text>
            </g>
            <g transform="matrix(-0.123418,0.639384,-0.639384,-0.123418,2490.26,3447.47)">
                <g transform="matrix(0.195059,-4.71958,4.71958,0.195059,-173.139,4142.53)">
                    <g transform="matrix(102.712,127.612,127.612,-102.712,153.152,38.6496)">
                        <path d="M0.522,0.004C0.52,-0.002 0.523,-0.008 0.529,-0.01C0.535,-0.012 0.541,-0.009 0.543,-0.003C0.545,0.003 0.542,0.009 0.536,0.011C0.532,0.013 0.527,0.011 0.524,0.008C0.523,0.007 0.522,0.005 0.522,0.004Z" style="fill:rgb(221,183,103);fill-rule:nonzero;"/>
                    </g>
                    <g transform="matrix(102.711,127.611,127.611,-102.711,157.226,35.3718)">
                        <path d="M0.534,0.004C0.532,-0.002 0.535,-0.008 0.54,-0.009C0.546,-0.011 0.551,-0.008 0.553,-0.003C0.555,0.002 0.552,0.008 0.547,0.01C0.543,0.012 0.538,0.01 0.536,0.007C0.535,0.006 0.534,0.005 0.534,0.004Z" style="fill:rgb(221,183,103);fill-rule:nonzero;"/>
                    </g>
                    <g transform="matrix(102.712,127.612,127.612,-102.712,161.297,32.0944)">
                        <path d="M0.546,0.003C0.544,-0.001 0.547,-0.007 0.551,-0.008C0.556,-0.01 0.562,-0.007 0.563,-0.003C0.565,0.002 0.562,0.007 0.557,0.009C0.554,0.01 0.55,0.009 0.547,0.006C0.547,0.005 0.546,0.004 0.546,0.003Z" style="fill:rgb(221,183,103);fill-rule:nonzero;"/>
                    </g>
                    <g transform="matrix(102.714,127.614,127.614,-102.714,165.37,28.814)">
                        <path d="M0.558,0.003C0.556,-0.001 0.558,-0.006 0.563,-0.007C0.567,-0.009 0.572,-0.007 0.573,-0.002C0.574,0.002 0.572,0.007 0.568,0.008C0.565,0.009 0.561,0.008 0.559,0.005C0.558,0.005 0.558,0.004 0.558,0.003Z" style="fill:rgb(221,183,103);fill-rule:nonzero;"/>
                    </g>
                    <g transform="matrix(102.712,127.612,127.612,-102.712,169.441,25.5394)">
                        <path d="M0.569,0.003C0.568,-0.001 0.57,-0.005 0.574,-0.006C0.578,-0.008 0.582,-0.006 0.583,-0.002C0.584,0.002 0.582,0.006 0.578,0.007C0.576,0.008 0.572,0.007 0.571,0.005C0.57,0.004 0.57,0.003 0.569,0.003Z" style="fill:rgb(221,183,103);fill-rule:nonzero;"/>
                    </g>
                    <g transform="matrix(102.711,127.611,127.611,-102.711,173.516,22.2602)">
                        <path d="M0.581,0.002C0.58,-0.001 0.582,-0.004 0.585,-0.005C0.588,-0.006 0.592,-0.005 0.593,-0.002C0.594,0.001 0.592,0.005 0.589,0.006C0.587,0.007 0.584,0.006 0.582,0.004C0.582,0.003 0.582,0.003 0.581,0.002Z" style="fill:rgb(221,183,103);fill-rule:nonzero;"/>
                    </g>
                </g>
                <g transform="matrix(-1.72234,-4.39841,4.39841,-1.72234,235.573,4295.66)">
                    <g transform="matrix(102.712,127.612,127.612,-102.712,153.152,38.6496)">
                        <path d="M0.522,0.004C0.52,-0.002 0.523,-0.008 0.529,-0.01C0.535,-0.012 0.541,-0.009 0.543,-0.003C0.545,0.003 0.542,0.009 0.536,0.011C0.532,0.013 0.527,0.011 0.524,0.008C0.523,0.007 0.522,0.005 0.522,0.004Z" style="fill:rgb(221,183,103);fill-rule:nonzero;"/>
                    </g>
                    <g transform="matrix(102.711,127.611,127.611,-102.711,157.226,35.3718)">
                        <path d="M0.534,0.004C0.532,-0.002 0.535,-0.008 0.54,-0.009C0.546,-0.011 0.551,-0.008 0.553,-0.003C0.555,0.002 0.552,0.008 0.547,0.01C0.543,0.012 0.538,0.01 0.536,0.007C0.535,0.006 0.534,0.005 0.534,0.004Z" style="fill:rgb(221,183,103);fill-rule:nonzero;"/>
                    </g>
                    <g transform="matrix(102.712,127.612,127.612,-102.712,161.297,32.0944)">
                        <path d="M0.546,0.003C0.544,-0.001 0.547,-0.007 0.551,-0.008C0.556,-0.01 0.562,-0.007 0.563,-0.003C0.565,0.002 0.562,0.007 0.557,0.009C0.554,0.01 0.55,0.009 0.547,0.006C0.547,0.005 0.546,0.004 0.546,0.003Z" style="fill:rgb(221,183,103);fill-rule:nonzero;"/>
                    </g>
                    <g transform="matrix(102.714,127.614,127.614,-102.714,165.37,28.814)">
                        <path d="M0.558,0.003C0.556,-0.001 0.558,-0.006 0.563,-0.007C0.567,-0.009 0.572,-0.007 0.573,-0.002C0.574,0.002 0.572,0.007 0.568,0.008C0.565,0.009 0.561,0.008 0.559,0.005C0.558,0.005 0.558,0.004 0.558,0.003Z" style="fill:rgb(221,183,103);fill-rule:nonzero;"/>
                    </g>
                    <g transform="matrix(102.712,127.612,127.612,-102.712,169.441,25.5394)">
                        <path d="M0.569,0.003C0.568,-0.001 0.57,-0.005 0.574,-0.006C0.578,-0.008 0.582,-0.006 0.583,-0.002C0.584,0.002 0.582,0.006 0.578,0.007C0.576,0.008 0.572,0.007 0.571,0.005C0.57,0.004 0.57,0.003 0.569,0.003Z" style="fill:rgb(221,183,103);fill-rule:nonzero;"/>
                    </g>
                    <g transform="matrix(102.711,127.611,127.611,-102.711,173.516,22.2602)">
                        <path d="M0.581,0.002C0.58,-0.001 0.582,-0.004 0.585,-0.005C0.588,-0.006 0.592,-0.005 0.593,-0.002C0.594,0.001 0.592,0.005 0.589,0.006C0.587,0.007 0.584,0.006 0.582,0.004C0.582,0.003 0.582,0.003 0.581,0.002Z" style="fill:rgb(221,183,103);fill-rule:nonzero;"/>
                    </g>
                </g>
                <g transform="matrix(-3.34799,-3.33218,3.33218,-3.34799,674.133,4273.76)">
                    <g transform="matrix(102.712,127.612,127.612,-102.712,153.152,38.6496)">
                        <path d="M0.522,0.004C0.52,-0.002 0.523,-0.008 0.529,-0.01C0.535,-0.012 0.541,-0.009 0.543,-0.003C0.545,0.003 0.542,0.009 0.536,0.011C0.532,0.013 0.527,0.011 0.524,0.008C0.523,0.007 0.522,0.005 0.522,0.004Z" style="fill:rgb(221,183,103);fill-rule:nonzero;"/>
                    </g>
                    <g transform="matrix(102.711,127.611,127.611,-102.711,157.226,35.3718)">
                        <path d="M0.534,0.004C0.532,-0.002 0.535,-0.008 0.54,-0.009C0.546,-0.011 0.551,-0.008 0.553,-0.003C0.555,0.002 0.552,0.008 0.547,0.01C0.543,0.012 0.538,0.01 0.536,0.007C0.535,0.006 0.534,0.005 0.534,0.004Z" style="fill:rgb(221,183,103);fill-rule:nonzero;"/>
                    </g>
                    <g transform="matrix(102.712,127.612,127.612,-102.712,161.297,32.0944)">
                        <path d="M0.546,0.003C0.544,-0.001 0.547,-0.007 0.551,-0.008C0.556,-0.01 0.562,-0.007 0.563,-0.003C0.565,0.002 0.562,0.007 0.557,0.009C0.554,0.01 0.55,0.009 0.547,0.006C0.547,0.005 0.546,0.004 0.546,0.003Z" style="fill:rgb(221,183,103);fill-rule:nonzero;"/>
                    </g>
                    <g transform="matrix(102.714,127.614,127.614,-102.714,165.37,28.814)">
                        <path d="M0.558,0.003C0.556,-0.001 0.558,-0.006 0.563,-0.007C0.567,-0.009 0.572,-0.007 0.573,-0.002C0.574,0.002 0.572,0.007 0.568,0.008C0.565,0.009 0.561,0.008 0.559,0.005C0.558,0.005 0.558,0.004 0.558,0.003Z" style="fill:rgb(221,183,103);fill-rule:nonzero;"/>
                    </g>
                    <g transform="matrix(102.712,127.612,127.612,-102.712,169.441,25.5394)">
                        <path d="M0.569,0.003C0.568,-0.001 0.57,-0.005 0.574,-0.006C0.578,-0.008 0.582,-0.006 0.583,-0.002C0.584,0.002 0.582,0.006 0.578,0.007C0.576,0.008 0.572,0.007 0.571,0.005C0.57,0.004 0.57,0.003 0.569,0.003Z" style="fill:rgb(221,183,103);fill-rule:nonzero;"/>
                    </g>
                </g>
                <g transform="matrix(-4.40651,-1.70151,1.70151,-4.40651,1061.54,4077.69)">
                    <g transform="matrix(102.712,127.612,127.612,-102.712,153.152,38.6496)">
                        <path d="M0.522,0.004C0.52,-0.002 0.523,-0.008 0.529,-0.01C0.535,-0.012 0.541,-0.009 0.543,-0.003C0.545,0.003 0.542,0.009 0.536,0.011C0.532,0.013 0.527,0.011 0.524,0.008C0.523,0.007 0.522,0.005 0.522,0.004Z" style="fill:rgb(221,183,103);fill-rule:nonzero;"/>
                    </g>
                    <g transform="matrix(102.711,127.611,127.611,-102.711,157.226,35.3718)">
                        <path d="M0.534,0.004C0.532,-0.002 0.535,-0.008 0.54,-0.009C0.546,-0.011 0.551,-0.008 0.553,-0.003C0.555,0.002 0.552,0.008 0.547,0.01C0.543,0.012 0.538,0.01 0.536,0.007C0.535,0.006 0.534,0.005 0.534,0.004Z" style="fill:rgb(221,183,103);fill-rule:nonzero;"/>
                    </g>
                    <g transform="matrix(102.712,127.612,127.612,-102.712,161.297,32.0944)">
                        <path d="M0.546,0.003C0.544,-0.001 0.547,-0.007 0.551,-0.008C0.556,-0.01 0.562,-0.007 0.563,-0.003C0.565,0.002 0.562,0.007 0.557,0.009C0.554,0.01 0.55,0.009 0.547,0.006C0.547,0.005 0.546,0.004 0.546,0.003Z" style="fill:rgb(221,183,103);fill-rule:nonzero;"/>
                    </g>
                    <g transform="matrix(102.714,127.614,127.614,-102.714,165.37,28.814)">
                        <path d="M0.558,0.003C0.556,-0.001 0.558,-0.006 0.563,-0.007C0.567,-0.009 0.572,-0.007 0.573,-0.002C0.574,0.002 0.572,0.007 0.568,0.008C0.565,0.009 0.561,0.008 0.559,0.005C0.558,0.005 0.558,0.004 0.558,0.003Z" style="fill:rgb(221,183,103);fill-rule:nonzero;"/>
                    </g>
                </g>
                <g transform="matrix(2.05726,-4.25208,4.25208,2.05726,-482.277,3839.99)">
                    <g transform="matrix(102.712,127.612,127.612,-102.712,153.152,38.6496)">
                        <path d="M0.522,0.004C0.52,-0.002 0.523,-0.008 0.529,-0.01C0.535,-0.012 0.541,-0.009 0.543,-0.003C0.545,0.003 0.542,0.009 0.536,0.011C0.532,0.013 0.527,0.011 0.524,0.008C0.523,0.007 0.522,0.005 0.522,0.004Z" style="fill:rgb(221,183,103);fill-rule:nonzero;"/>
                    </g>
                    <g transform="matrix(102.711,127.611,127.611,-102.711,157.226,35.3718)">
                        <path d="M0.534,0.004C0.532,-0.002 0.535,-0.008 0.54,-0.009C0.546,-0.011 0.551,-0.008 0.553,-0.003C0.555,0.002 0.552,0.008 0.547,0.01C0.543,0.012 0.538,0.01 0.536,0.007C0.535,0.006 0.534,0.005 0.534,0.004Z" style="fill:rgb(221,183,103);fill-rule:nonzero;"/>
                    </g>
                    <g transform="matrix(102.712,127.612,127.612,-102.712,161.297,32.0944)">
                        <path d="M0.546,0.003C0.544,-0.001 0.547,-0.007 0.551,-0.008C0.556,-0.01 0.562,-0.007 0.563,-0.003C0.565,0.002 0.562,0.007 0.557,0.009C0.554,0.01 0.55,0.009 0.547,0.006C0.547,0.005 0.546,0.004 0.546,0.003Z" style="fill:rgb(221,183,103);fill-rule:nonzero;"/>
                    </g>
                    <g transform="matrix(102.714,127.614,127.614,-102.714,165.37,28.814)">
                        <path d="M0.558,0.003C0.556,-0.001 0.558,-0.006 0.563,-0.007C0.567,-0.009 0.572,-0.007 0.573,-0.002C0.574,0.002 0.572,0.007 0.568,0.008C0.565,0.009 0.561,0.008 0.559,0.005C0.558,0.005 0.558,0.004 0.558,0.003Z" style="fill:rgb(221,183,103);fill-rule:nonzero;"/>
                    </g>
                    <g transform="matrix(102.712,127.612,127.612,-102.712,169.441,25.5394)">
                        <path d="M0.569,0.003C0.568,-0.001 0.57,-0.005 0.574,-0.006C0.578,-0.008 0.582,-0.006 0.583,-0.002C0.584,0.002 0.582,0.006 0.578,0.007C0.576,0.008 0.572,0.007 0.571,0.005C0.57,0.004 0.57,0.003 0.569,0.003Z" style="fill:rgb(221,183,103);fill-rule:nonzero;"/>
                    </g>
                    <g transform="matrix(102.711,127.611,127.611,-102.711,173.516,22.2602)">
                        <path d="M0.581,0.002C0.58,-0.001 0.582,-0.004 0.585,-0.005C0.588,-0.006 0.592,-0.005 0.593,-0.002C0.594,0.001 0.592,0.005 0.589,0.006C0.587,0.007 0.584,0.006 0.582,0.004C0.582,0.003 0.582,0.003 0.581,0.002Z" style="fill:rgb(221,183,103);fill-rule:nonzero;"/>
                    </g>
                </g>
                <g transform="matrix(3.17955,-3.49327,3.49327,3.17955,-606.261,3565.25)">
                    <g transform="matrix(102.712,127.612,127.612,-102.712,153.152,38.6496)">
                        <path d="M0.522,0.004C0.52,-0.002 0.523,-0.008 0.529,-0.01C0.535,-0.012 0.541,-0.009 0.543,-0.003C0.545,0.003 0.542,0.009 0.536,0.011C0.532,0.013 0.527,0.011 0.524,0.008C0.523,0.007 0.522,0.005 0.522,0.004Z" style="fill:rgb(221,183,103);fill-rule:nonzero;"/>
                    </g>
                    <g transform="matrix(102.711,127.611,127.611,-102.711,157.226,35.3718)">
                        <path d="M0.534,0.004C0.532,-0.002 0.535,-0.008 0.54,-0.009C0.546,-0.011 0.551,-0.008 0.553,-0.003C0.555,0.002 0.552,0.008 0.547,0.01C0.543,0.012 0.538,0.01 0.536,0.007C0.535,0.006 0.534,0.005 0.534,0.004Z" style="fill:rgb(221,183,103);fill-rule:nonzero;"/>
                    </g>
                    <g transform="matrix(102.712,127.612,127.612,-102.712,161.297,32.0944)">
                        <path d="M0.546,0.003C0.544,-0.001 0.547,-0.007 0.551,-0.008C0.556,-0.01 0.562,-0.007 0.563,-0.003C0.565,0.002 0.562,0.007 0.557,0.009C0.554,0.01 0.55,0.009 0.547,0.006C0.547,0.005 0.546,0.004 0.546,0.003Z" style="fill:rgb(221,183,103);fill-rule:nonzero;"/>
                    </g>
                    <g transform="matrix(102.714,127.614,127.614,-102.714,165.37,28.814)">
                        <path d="M0.558,0.003C0.556,-0.001 0.558,-0.006 0.563,-0.007C0.567,-0.009 0.572,-0.007 0.573,-0.002C0.574,0.002 0.572,0.007 0.568,0.008C0.565,0.009 0.561,0.008 0.559,0.005C0.558,0.005 0.558,0.004 0.558,0.003Z" style="fill:rgb(221,183,103);fill-rule:nonzero;"/>
                    </g>
                    <g transform="matrix(102.712,127.612,127.612,-102.712,169.441,25.5394)">
                        <path d="M0.569,0.003C0.568,-0.001 0.57,-0.005 0.574,-0.006C0.578,-0.008 0.582,-0.006 0.583,-0.002C0.584,0.002 0.582,0.006 0.578,0.007C0.576,0.008 0.572,0.007 0.571,0.005C0.57,0.004 0.57,0.003 0.569,0.003Z" style="fill:rgb(221,183,103);fill-rule:nonzero;"/>
                    </g>
                </g>
                <g transform="matrix(4.13655,-2.28066,2.28066,4.13655,-648.813,3223)">
                    <g transform="matrix(102.712,127.612,127.612,-102.712,153.152,38.6496)">
                        <path d="M0.522,0.004C0.52,-0.002 0.523,-0.008 0.529,-0.01C0.535,-0.012 0.541,-0.009 0.543,-0.003C0.545,0.003 0.542,0.009 0.536,0.011C0.532,0.013 0.527,0.011 0.524,0.008C0.523,0.007 0.522,0.005 0.522,0.004Z" style="fill:rgb(221,183,103);fill-rule:nonzero;"/>
                    </g>
                    <g transform="matrix(102.711,127.611,127.611,-102.711,157.226,35.3718)">
                        <path d="M0.534,0.004C0.532,-0.002 0.535,-0.008 0.54,-0.009C0.546,-0.011 0.551,-0.008 0.553,-0.003C0.555,0.002 0.552,0.008 0.547,0.01C0.543,0.012 0.538,0.01 0.536,0.007C0.535,0.006 0.534,0.005 0.534,0.004Z" style="fill:rgb(221,183,103);fill-rule:nonzero;"/>
                    </g>
                    <g transform="matrix(102.712,127.612,127.612,-102.712,161.297,32.0944)">
                        <path d="M0.546,0.003C0.544,-0.001 0.547,-0.007 0.551,-0.008C0.556,-0.01 0.562,-0.007 0.563,-0.003C0.565,0.002 0.562,0.007 0.557,0.009C0.554,0.01 0.55,0.009 0.547,0.006C0.547,0.005 0.546,0.004 0.546,0.003Z" style="fill:rgb(221,183,103);fill-rule:nonzero;"/>
                    </g>
                </g>
            </g>
        </g>
    </g>
</svg>
